<svg class="animated" id="freepik_stories-search" xmlns="http://www.w3.org/2000/svg" viewBox="0 0 500 500" version="1.1"><style>@keyframes shake{10%,90%{transform:translate3d(-1px,0,0)}20%,80%{transform:translate3d(2px,0,0)}30%,50%,70%{transform:translate3d(-4px,0,0)}40%,60%{transform:translate3d(4px,0,0)}}svg#freepik_stories-search:not(.animated) .animable{opacity:0}</style><g id="freepik--background-complete--inject-2" class="animable" style="transform-origin:250px 225.15px"><path style="transform-origin:250px 382.525px" id="elgiz7srcwox6" class="animable" fill="#e0e0e0" d="M0 382.4h500v.25H0z"/><path style="transform-origin:362.13px 391.745px" id="elx72lneznxel" class="animable" fill="#e0e0e0" d="M344.93 391.62h34.4v.25h-34.4z"/><path style="transform-origin:410.12px 391.035px" id="elpkapuyjs1p" class="animable" fill="#e0e0e0" d="M400.44 390.91h19.36v.25h-19.36z"/><path style="transform-origin:234.5px 391.625px" id="eloy11nmoiyc" class="animable" fill="#e0e0e0" d="M221.66 391.5h25.68v.25h-25.68z"/><path style="transform-origin:257.12px 395.175px" id="elk0585y3lqbm" class="animable" fill="#e0e0e0" d="M248.35 395.05h17.54v.25h-17.54z"/><path style="transform-origin:118.175px 389.095px" id="elu0diljp2s8" class="animable" fill="#e0e0e0" d="M91.68 388.97h52.99v.25H91.68z"/><path d="M237 337.8H43.91a5.71 5.71 0 01-5.7-5.71V60.66a5.71 5.71 0 015.7-5.66H237a5.71 5.71 0 015.71 5.71v271.38a5.71 5.71 0 01-5.71 5.71zM43.91 55.2a5.46 5.46 0 00-5.45 5.46v271.43a5.46 5.46 0 005.45 5.46H237a5.47 5.47 0 005.46-5.46V60.66A5.47 5.47 0 00237 55.2z" style="transform-origin:140.46px 196.4px" id="eltmbwzrxjxoh" class="animable" fill="#e0e0e0"/><path d="M453.31 337.8h-193.1a5.72 5.72 0 01-5.71-5.71V60.66a5.72 5.72 0 015.71-5.66h193.1a5.71 5.71 0 015.69 5.66v271.43a5.71 5.71 0 01-5.69 5.71zM260.21 55.2a5.47 5.47 0 00-5.46 5.46v271.43a5.47 5.47 0 005.46 5.46h193.1a5.47 5.47 0 005.46-5.46V60.66a5.47 5.47 0 00-5.46-5.46z" style="transform-origin:356.75px 196.4px" id="elty7eepnbm8g" class="animable" fill="#e0e0e0"/><path style="transform-origin:358.68px 144.05px" id="elagc7rjtnito" class="animable" fill="#e0e0e0" d="M283.33 79.27h150.7v129.56h-150.7z"/><path style="transform-origin:362.03px 144.05px" id="el7b2294uvuep" class="animable" fill="#f0f0f0" d="M286.68 79.27h150.7v129.56h-150.7z"/><g id="el6nd8cwaumd"><path style="transform-origin:362.03px 144.05px" class="animable" id="elcp23b3el1o" fill="#fafafa" transform="rotate(90)" d="M303.33 74.71h117.4v138.68h-117.4z"/></g><g id="elz2ru0e5roh"><path style="transform-origin:382.52px 144.04px" class="animable" id="elzxed2tlfb5" fill="#e0e0e0" transform="rotate(90)" d="M323.82 139.51h117.4v9.06h-117.4z"/></g><g id="elyy22dhjs85"><path style="transform-origin:334.85px 144.04px" class="animable" id="el9ugc3c37um5" fill="#e0e0e0" transform="rotate(90)" d="M276.15 139.51h117.4v9.06h-117.4z"/></g><g id="el9ok8r9prqpl"><path style="transform-origin:385.7px 143.71px" class="animable" id="el4ybyzslkpwe" fill="#f0f0f0" transform="rotate(90)" d="M322.81 139.18h125.78v9.06H322.81z"/></g><g id="elbor30g9v9km"><path style="transform-origin:338.04px 143.71px" class="animable" id="elaps3c69qfrv" fill="#f0f0f0" transform="rotate(90)" d="M275.15 139.18h125.78v9.06H275.15z"/></g><g id="elnf7moo7x8lb"><path style="transform-origin:430.1px 144.045px" class="animable" id="elk27fugsb58r" fill="#e0e0e0" transform="rotate(90)" d="M371.4 142.78h117.4v2.53H371.4z"/></g><path d="M177.34 181.59S159 150 184.45 124.81c0 0 6.64 4.33 6.54 10.15s-7.12 7.29-5.61 12.15 8.12 9.61 3.78 13.63.7 7.58.41 12.5-12.23 8.35-12.23 8.35z" style="transform-origin:180.969px 153.2px" id="elgvv0u7shy8v" class="animable" fill="#e0e0e0"/><path d="M180.22 186.76s7.44-35.78-24.64-51.64c0 0-4.94 6.2-3 11.69s9.05 4.67 9.15 9.76-4.67 11.69.71 14.13 1.73 7.42 3.56 12 14.22 4.06 14.22 4.06z" style="transform-origin:166.548px 160.949px" id="elmfdh0ha4wma" class="animable" fill="#e6e6e6"/><path d="M163.89 177.67s.32 30.89 12.67 30.89 12.66-30.89 12.66-30.89z" style="transform-origin:176.555px 193.115px" id="elfizilda81q9" class="animable" fill="#f0f0f0"/><path d="M89.69 196.94s.69 11.62 27.06 11.62 27.07-11.62 27.07-11.62z" style="transform-origin:116.755px 202.75px" id="el1ha19x82tjw" class="animable" fill="#e6e6e6"/><rect x="350.64" y="267" width="20.2" height="29.3" rx="3.14" style="transform-origin:360.74px 281.65px" id="elyw13wcfzfq" class="animable" fill="#f0f0f0"/><rect x="393.14" y="276.58" width="13.59" height="19.72" rx="2.11" style="transform-origin:399.935px 286.44px" id="el4rgila8dhpt" class="animable" fill="#e6e6e6"/><rect x="393.14" y="274.67" width="13.59" height="2.22" rx=".71" style="transform-origin:399.935px 275.78px" id="elfeyjjh4rm9" class="animable" fill="#f0f0f0"/><path d="M318.42 280s.5 16.3 19.59 16.3 19.6-16.3 19.6-16.3z" style="transform-origin:338.015px 288.15px" id="el8js3z9zki0a" class="animable" fill="#e6e6e6"/><g id="elkl0f3yrqz1"><path style="transform-origin:285.385px 255.63px" class="animable" id="el8oyq2gyfv06" fill="#e0e0e0" transform="rotate(180)" d="M270.94 252.78h28.89v5.7h-28.89z"/></g><path style="transform-origin:371.645px 255.63px" id="elp0v6uh35mz" class="animable" fill="#f0f0f0" d="M299.83 252.78h143.63v5.7H299.83z"/><g id="elre4y8orfub"><path style="transform-origin:285.385px 299.15px" class="animable" id="elzchqw8j0x3" fill="#e0e0e0" transform="rotate(180)" d="M270.94 296.3h28.89v5.7h-28.89z"/></g><path style="transform-origin:371.645px 299.15px" id="elwuwfeex5b2" class="animable" fill="#f0f0f0" d="M299.83 296.3h143.63v5.7H299.83z"/><path style="transform-origin:278.685px 320.43px" id="elj2hjsk8oq4r" class="animable" fill="#e0e0e0" d="M276.02 258.47h5.33v123.92h-5.33z"/><path style="transform-origin:302.495px 320.43px" id="elctl2ycrtihc" class="animable" fill="#f0f0f0" d="M299.83 258.47h5.33v123.92h-5.33z"/><path style="transform-origin:422.315px 320.43px" id="ellw5lxb56bln" class="animable" fill="#e0e0e0" d="M419.65 258.47h5.33v123.92h-5.33z"/><path style="transform-origin:440.795px 320.43px" id="elpfsscaaopg" class="animable" fill="#f0f0f0" d="M438.13 258.47h5.33v123.92h-5.33z"/><path style="transform-origin:76.03px 295.355px" id="elyk5vlkz91" class="animable" fill="#e6e6e6" d="M62.37 215.81h27.32V374.9H62.37z"/><path style="transform-origin:134.98px 378.645px" id="elegr7fnc8on" class="animable" fill="#e6e6e6" d="M67.62 374.89h134.72v7.51H67.62z"/><g id="elomc7fmbs9xj"><path style="transform-origin:148.635px 295.355px" class="animable" id="elnktdm4a88d" fill="#f0f0f0" transform="rotate(180)" d="M89.69 215.81h117.89V374.9H89.69z"/></g><g id="elle4wldv9m5s"><path style="transform-origin:148.635px 295.35px" class="animable" id="elbqyeghyl1d4" fill="#e6e6e6" transform="rotate(180)" d="M100.43 275.92h96.41v38.86h-96.41z"/></g><g id="ell96cls85dya"><path style="transform-origin:148.635px 341.29px" class="animable" id="el9hq3upc0ze" fill="#e6e6e6" transform="rotate(180)" d="M100.43 321.86h96.41v38.86h-96.41z"/></g><path d="M159.46 280.18h-21.65a2.67 2.67 0 01-2.66-2.66 2.67 2.67 0 012.66-2.67h21.65a2.67 2.67 0 012.66 2.67 2.67 2.67 0 01-2.66 2.66z" style="transform-origin:148.635px 277.515px" id="elca8ahml8m04" class="animable" fill="#f0f0f0"/><g id="elmhsdrjvoki"><path style="transform-origin:148.635px 249.41px" class="animable" id="eltffvyskx1j" fill="#e6e6e6" transform="rotate(180)" d="M100.43 229.98h96.41v38.86h-96.41z"/></g><path d="M159.46 234.24h-21.65a2.67 2.67 0 01-2.66-2.67 2.67 2.67 0 012.66-2.66h21.65a2.67 2.67 0 012.66 2.66 2.67 2.67 0 01-2.66 2.67z" style="transform-origin:148.635px 231.575px" id="el0xsz6a82z1ff" class="animable" fill="#f0f0f0"/><path d="M159.46 326.12h-21.65a2.67 2.67 0 01-2.66-2.66 2.67 2.67 0 012.66-2.67h21.65a2.67 2.67 0 012.66 2.67 2.67 2.67 0 01-2.66 2.66z" style="transform-origin:148.635px 323.455px" id="eltwhmsoghndd" class="animable" fill="#f0f0f0"/><path style="transform-origin:150.455px 212.185px" id="elawqx7r4muf" class="animable" fill="#e6e6e6" d="M89.69 208.56h121.53v7.25H89.69z"/><g id="elgy44ljc0i6"><path style="transform-origin:74.13px 212.185px" class="animable" id="el2uj169qmpo6" fill="#e0e0e0" transform="rotate(180)" d="M58.56 208.56H89.7v7.25H58.56z"/></g><path style="transform-origin:98.04px 109.62px" id="elrmz264rs9p" class="animable" fill="#e6e6e6" d="M75.94 85.35h44.2v48.54h-44.2z"/><path style="transform-origin:102.1px 109.62px" id="el5tflg8oimpl" class="animable" fill="#f0f0f0" d="M79.27 85.35h45.66v48.54H79.27z"/><g id="el8gdrhkob6uf"><path style="transform-origin:102.095px 109.615px" class="animable" id="elhq4di8ekq6j" fill="#fafafa" transform="rotate(90)" d="M81.65 90.61h40.89v38.01H81.65z"/></g><g id="el3dh9rt8tuwr"><path style="transform-origin:102.095px 109.61px" class="animable" id="el0su4u7xp0fh" fill="#f0f0f0" transform="rotate(90)" d="M91.56 99.82h21.07v19.58H91.56z"/></g><path style="transform-origin:149.98px 89.025px" id="el0q3nl8idm87r" class="animable" fill="#e6e6e6" d="M133.22 71.02h33.52v36.01h-33.52z"/><path style="transform-origin:153.365px 89.025px" id="eld4mkwxkcx9p" class="animable" fill="#f0f0f0" d="M136.43 71.02h33.87v36.01h-33.87z"/><g id="elsv9vniy012"><path style="transform-origin:153.365px 89.015px" class="animable" id="elf3lmeqwkhqp" fill="#fafafa" transform="rotate(90)" d="M138.2 74.92h30.33v28.19H138.2z"/></g><path style="transform-origin:153.36px 88.03px" id="elbg63tx82mn" class="animable" fill="#f0f0f0" d="M153.36 81.35l-7.71 13.36h15.42l-7.71-13.36z"/></g><g id="freepik--Shadow--inject-2" class="animable" style="transform-origin:250px 416.24px"><ellipse cx="250" cy="416.24" rx="193.89" ry="11.32" style="transform-origin:250px 416.24px" id="eldackd98ja18" class="animable" fill="#f5f5f5"/></g><g id="freepik--speech-bubbles--inject-2" class="animable" style="transform-origin:269.848px 176.815px;animation:1.5s Infinite linear shake;animation-delay:0s"><rect x="312.33" y="145.82" width="116.84" height="45.42" rx="9.37" style="transform-origin:370.75px 168.53px" id="elo29fkg1qasl" class="animable" fill="#2982de"/><rect x="322.07" y="153.48" width="79.91" height="5.08" rx="1.64" style="transform-origin:362.025px 156.02px" id="el6b0h9ukg21" class="animable" fill="#2982de"/><rect x="322.07" y="165.72" width="55.64" height="5.08" rx="1.64" style="transform-origin:349.89px 168.26px" id="elqdbj68l9vid" class="animable" fill="#2982de"/><rect x="322.07" y="177.96" width="41.6" height="5.08" rx="1.64" style="transform-origin:342.87px 180.5px" id="elwt7ap1yr41" class="animable" fill="#2982de"/><rect x="369.56" y="177.96" width="41.6" height="5.08" rx="1.64" style="transform-origin:390.36px 180.5px" id="eljta801ak08s" class="animable" fill="#2982de"/><g id="elfz3u9k520pm"><g style="transform-origin:366.615px 168.26px" class="animable" id="el3bh3j8yctc7" opacity=".5"><rect x="322.07" y="153.48" width="79.91" height="5.08" rx="1.64" style="transform-origin:362.025px 156.02px" id="elziooairwe8m" class="animable" fill="#fff"/><rect x="322.07" y="165.72" width="55.64" height="5.08" rx="1.64" style="transform-origin:349.89px 168.26px" id="elvhur1v05sz8" class="animable" fill="#fff"/><rect x="322.07" y="177.96" width="41.6" height="5.08" rx="1.64" style="transform-origin:342.87px 180.5px" id="elt5y6xbv4tt" class="animable" fill="#fff"/><rect x="369.56" y="177.96" width="41.6" height="5.08" rx="1.64" style="transform-origin:390.36px 180.5px" id="elzfn282b2bmb" class="animable" fill="#fff"/></g></g><rect x="216.13" y="135.23" width="138.83" height="66.6" rx="13.74" style="transform-origin:285.545px 168.53px" id="ellzwiogoegm" class="animable" fill="#2982de"/><rect x="230.41" y="146.46" width="117.16" height="7.45" rx="2.41" style="transform-origin:288.99px 150.185px" id="elgqy1cspavia" class="animable" fill="#2982de"/><rect x="230.41" y="164.41" width="81.57" height="7.45" rx="2.41" style="transform-origin:271.195px 168.135px" id="el9qbjt5uzc4t" class="animable" fill="#2982de"/><rect x="230.41" y="182.36" width="60.99" height="7.45" rx="2.41" style="transform-origin:260.905px 186.085px" id="elkyqg5biilrk" class="animable" fill="#2982de"/><rect x="300.04" y="182.36" width="51.62" height="7.45" rx="2.41" style="transform-origin:325.85px 186.085px" id="elieldea22yvl" class="animable" fill="#2982de"/><g id="elhpgzw6o56fp"><g style="transform-origin:291.035px 168.135px" class="animable" id="elh7nxdx0i8f" opacity=".5"><rect x="230.41" y="146.46" width="117.16" height="7.45" rx="2.41" style="transform-origin:288.99px 150.185px" id="elb2i78ujy5aa" class="animable" fill="#fff"/><rect x="230.41" y="164.41" width="81.57" height="7.45" rx="2.41" style="transform-origin:271.195px 168.135px" id="el5scak4wws93" class="animable" fill="#fff"/><rect x="230.41" y="182.36" width="60.99" height="7.45" rx="2.41" style="transform-origin:260.905px 186.085px" id="eli9akd4c6c5" class="animable" fill="#fff"/><rect x="300.04" y="182.36" width="51.62" height="7.45" rx="2.41" style="transform-origin:325.85px 186.085px" id="eluo2abwoboc" class="animable" fill="#fff"/></g></g><rect x="211.94" y="213.9" width="66.47" height="93.18" rx="6.42" style="transform-origin:245.175px 260.49px" id="el50n1c9eirjc" class="animable" fill="#2982de"/><g id="el900nyzvqmfr"><rect x="211.94" y="213.9" width="66.47" height="93.18" rx="6.42" style="transform-origin:245.175px 260.49px" class="animable" id="el04e7wqrivliv" opacity=".4"/></g><rect x="219.63" y="223.62" width="51.08" height="4.13" rx="1.18" style="transform-origin:245.17px 225.685px" id="elz1dnbbfdk2" class="animable" fill="#fafafa"/><rect x="219.63" y="233.56" width="35.57" height="4.13" rx="1.18" style="transform-origin:237.415px 235.625px" id="elinjj9eb1b9h" class="animable" fill="#fafafa"/><rect x="219.63" y="243.51" width="51.08" height="4.13" rx="1.18" style="transform-origin:245.17px 245.575px" id="el9pels3ed16a" class="animable" fill="#fafafa"/><rect x="219.63" y="253.45" width="20.47" height="4.13" rx="1.18" style="transform-origin:229.865px 255.515px" id="el5qdk8ysz6q5" class="animable" fill="#fafafa"/><rect x="244.97" y="253.45" width="20.47" height="4.13" rx="1.18" style="transform-origin:255.205px 255.515px" id="el07dx2yifrpr" class="animable" fill="#fafafa"/><rect x="219.63" y="263.4" width="51.08" height="4.13" rx="1.18" style="transform-origin:245.17px 265.465px" id="elk5g955zvwu" class="animable" fill="#fafafa"/><rect x="219.63" y="273.34" width="51.08" height="4.13" rx="1.18" style="transform-origin:245.17px 275.405px" id="eltw9c9pp55" class="animable" fill="#fafafa"/><rect x="219.63" y="283.29" width="42.44" height="4.13" rx="1.18" style="transform-origin:240.85px 285.355px" id="el3ex1q49wumn" class="animable" fill="#fafafa"/><rect x="219.63" y="293.23" width="21.06" height="4.13" rx="1.18" style="transform-origin:230.16px 295.295px" id="elj09nvglvd1d" class="animable" fill="#fafafa"/><path d="M286.5 213.33h-74.39L245 239.5l50.43 19v-36.26a8.93 8.93 0 00-8.93-8.91z" style="transform-origin:253.77px 235.915px" id="elv1e96keysgo" class="animable" fill="#2982de"/><g id="eleoqvxakyfgw"><path d="M286.5 213.33h-74.39L245 239.5l50.43 19v-36.26a8.93 8.93 0 00-8.93-8.91z" style="transform-origin:253.77px 235.915px" class="animable" id="el3g0z65tlwe7" opacity=".4"/></g><rect x="227.34" y="226.81" width="57.39" height="5.72" rx="1.48" style="transform-origin:256.035px 229.67px" id="elk2lpp10ij7" class="animable" fill="#fafafa"/><g id="eld5snb1zobs7"><rect x="329.04" y="205.32" width="66.84" height="105.37" rx="7.26" style="transform-origin:362.46px 258.005px" class="animable" id="elfujtgyo9ljb" fill="#2982de" transform="rotate(90)"/></g><g id="el9rhnp8keaye"><rect x="345.63" y="188.73" width="66.84" height="105.37" rx="7.26" style="transform-origin:379.05px 241.415px" class="animable" id="elxi778pl0ier" fill="#2982de" transform="rotate(90)"/></g><g id="el2vi1wfgyhce"><rect x="345.63" y="188.73" width="66.84" height="105.37" rx="7.26" style="transform-origin:379.05px 241.415px" class="animable" id="elw9udzw3ygcb" fill="#fff" opacity=".5" transform="rotate(90)"/></g><g id="el0ipglxy4of4a"><rect x="385.1" y="215.48" width="38.67" height="36.15" rx="3.23" style="transform-origin:404.435px 233.555px" class="animable" id="elp8wzj6g384a" fill="#2982de" transform="rotate(90)"/></g><g id="elhwemmmu2z9"><rect x="385.1" y="215.48" width="38.67" height="36.15" rx="3.23" style="transform-origin:404.435px 233.555px" class="animable" id="elikcdatzj6ye" fill="#fff" opacity=".7" transform="rotate(90)"/></g><g id="ellnvz5y541he"><rect x="352.04" y="239.04" width="29.64" height="27.71" rx="2.48" style="transform-origin:366.86px 252.895px" class="animable" id="eld1ektqwi46p" fill="#2982de" transform="rotate(90)"/></g><g id="elrx4ousnyzhm"><rect x="352.04" y="239.04" width="29.64" height="27.71" rx="2.48" style="transform-origin:366.86px 252.895px" class="animable" id="elgctr1f2z06r" fill="#fff" opacity=".3" transform="rotate(90)"/></g><g id="elzz20qxbeyag"><rect x="223.36" y="-27.34" width="28.09" height="258.89" rx="7.38" style="transform-origin:237.405px 102.105px" class="animable" id="elb3kxrcd8355" fill="#2982de" transform="rotate(90)"/></g><g id="elhh1mjp5ar7"><rect x="223.36" y="-27.34" width="28.09" height="258.89" rx="7.38" style="transform-origin:237.405px 102.105px" class="animable" id="el5u76vbdpzws" fill="#fff" opacity=".5" transform="rotate(90)"/></g><g id="eltqyaay4f6t"><path style="transform-origin:285.545px 116.005px" class="animable" id="elbbxyjnq939n" fill="#2982de" transform="rotate(90)" d="M280.71 80.88h9.67v70.25h-9.67z"/></g><g id="elz9l5uxaxqyr"><path style="transform-origin:285.545px 116.005px" class="animable" id="el80lqidhtxcd" fill="#fff" opacity=".5" transform="rotate(90)" d="M280.71 80.88h9.67v70.25h-9.67z"/></g><g id="elgmn8j4l02dd"><rect x="248.54" y="-68.85" width="28.09" height="258.89" rx="7.38" style="transform-origin:262.585px 60.595px" class="animable" id="elzvvba3l5x5n" fill="#2982de" transform="rotate(90)"/></g></g><g id="freepik--Character--inject-2" class="animable" style="transform-origin:227.869px 256.639px"><path d="M130.36 194.26c-.88 2-1.85 4.16-2.7 6.27s-1.73 4.28-2.5 6.44a91.35 91.35 0 00-3.79 12.93l-.29 1.6-.1.6c0 .17 0 .39-.06.59a24.53 24.53 0 00.06 2.92c.19 2.11.53 4.37 1 6.63.84 4.53 1.91 9.2 3 13.8l-5.13 2a92.65 92.65 0 01-6.09-13.59 57 57 0 01-2.12-7.47 26.81 26.81 0 01-.56-4.26v-1.21c0-.43 0-.91.07-1.19l.2-2a63 63 0 011.37-7.65c.56-2.5 1.28-4.93 2-7.33s1.62-4.76 2.57-7.08c.47-1.16 1-2.31 1.46-3.46s1-2.25 1.64-3.48z" style="transform-origin:120.72px 218.68px" id="elb5adbry5bbn" class="animable" fill="#e4897b"/><path d="M124.71 244.69l3.9 3.81-8.51 4s-2.06-3.61-.63-6.87z" style="transform-origin:123.787px 248.595px" id="elnzu70gtcr6l" class="animable" fill="#e4897b"/><path style="transform-origin:125.935px 252.805px" id="elfehk7tf0mo7" class="animable" fill="#e4897b" d="M131.76 254.17l-7.19 2.94-4.46-4.65 8.5-3.96 3.15 5.67z"/><g id="elqlyc5w66oop"><path d="M277.41 250.07A72 72 0 11357 186.5a72 72 0 01-79.59 63.57z" style="transform-origin:285.444px 178.52px" class="animable" id="elz2uksitlv3n" fill="#fafafa" opacity=".4"/></g><g id="elzefy4fka69"><path d="M329.79 121.79l-109.5 87.49c-.46-1-.91-2-1.33-3a71.24 71.24 0 01-5.21-20.48l94.58-75.57a71.15 71.15 0 0121.46 11.56z" style="transform-origin:271.77px 159.755px" class="animable" id="elw5h1w0rwpm" fill="#fafafa" opacity=".4"/></g><g id="elpgep4osh8gk"><path d="M355.06 160.12l-102.95 82.25a71.86 71.86 0 01-24.77-21.28l112.41-89.82a72 72 0 0115.31 28.85z" style="transform-origin:291.2px 186.82px" class="animable" id="elfc5a6cy3ln" fill="#fafafa" opacity=".4"/></g><path d="M204.39 151l-.95-.32a87.68 87.68 0 016.18-14.05l.87.48a86.93 86.93 0 00-6.1 13.89zm12.14-23.34l-.81-.59a86.7 86.7 0 0131.37-26.21l.45.9a85.74 85.74 0 00-31.01 25.93zm109.59-24.53A83.6 83.6 0 00316 98.54l.36-.94a85.62 85.62 0 0110.22 4.68z" style="transform-origin:265.01px 124.3px" id="elpdn2ovc4boi" class="animable" fill="#2982de"/><g id="elj5fvvskxav"><path d="M204.39 151l-.95-.32a87.68 87.68 0 016.18-14.05l.87.48a86.93 86.93 0 00-6.1 13.89zm12.14-23.34l-.81-.59a86.7 86.7 0 0131.37-26.21l.45.9a85.74 85.74 0 00-31.01 25.93zm109.59-24.53A83.6 83.6 0 00316 98.54l.36-.94a85.62 85.62 0 0110.22 4.68z" style="transform-origin:265.01px 124.3px" class="animable" id="elt6f4hfktq9" opacity=".3"/></g><path d="M359.87 141.74a83 83 0 00-152.65 64.73c-6.68 2.34-13.28 4.85-19.84 7.44q-14.19 5.63-28.12 11.76c-9.28 4.11-18.52 8.3-27.67 12.68-4.59 2.15-9.12 4.42-13.69 6.62a19.79 19.79 0 00-6.34 4.35 19.15 19.15 0 00-2.57 3.37 17.25 17.25 0 00-2 4.63 12.72 12.72 0 007.33 14.85 17.56 17.56 0 004.86 1.26 18.88 18.88 0 004.25 0 19.76 19.76 0 007.3-2.39c4.53-2.29 9.09-4.5 13.59-6.85 9-4.59 18-9.38 26.89-14.24S189 240 197.68 234.78c6-3.63 12.06-7.34 18-11.22a83 83 0 00144.21-81.82zm-45.46 95.53a65.53 65.53 0 1129.75-87.78 65.53 65.53 0 01-29.75 87.78z" style="transform-origin:237.695px 184.169px" id="elcs2bki5l7c" class="animable" fill="#2982de"/><g id="elem6ih3q94pl"><path d="M359.87 141.74a83 83 0 00-152.65 64.73c-6.68 2.34-13.28 4.85-19.84 7.44q-14.19 5.63-28.12 11.76c-9.28 4.11-18.52 8.3-27.67 12.68-4.59 2.15-9.12 4.42-13.69 6.62a19.79 19.79 0 00-6.34 4.35 19.15 19.15 0 00-2.57 3.37 17.25 17.25 0 00-2 4.63 12.72 12.72 0 007.33 14.85 17.56 17.56 0 004.86 1.26 18.88 18.88 0 004.25 0 19.76 19.76 0 007.3-2.39c4.53-2.29 9.09-4.5 13.59-6.85 9-4.59 18-9.38 26.89-14.24S189 240 197.68 234.78c6-3.63 12.06-7.34 18-11.22a83 83 0 00144.21-81.82zm-45.46 95.53a65.53 65.53 0 1129.75-87.78 65.53 65.53 0 01-29.75 87.78z" style="transform-origin:237.695px 184.169px" class="animable" id="elwboq1ssmkh" opacity=".3"/></g><path d="M158 158.55c0 .59.31 1.07.7 1.07s.7-.48.7-1.07-.31-1.07-.7-1.07-.7.52-.7 1.07z" style="transform-origin:158.7px 158.55px" id="elnbhu17ne74i" class="animable" fill="#263238"/><path d="M158.28 159.62a21.33 21.33 0 002.83 5.07 3.41 3.41 0 01-2.83.53z" style="transform-origin:159.695px 162.473px" id="elbq1am5qid0s" class="animable" fill="#de5753"/><path d="M155.93 155.26a.37.37 0 01-.29-.14.36.36 0 01.08-.49 3.43 3.43 0 013.13-.53.35.35 0 11-.25.65 2.73 2.73 0 00-2.47.45.36.36 0 01-.2.06z" style="transform-origin:157.343px 154.596px" id="elz7m1pqvdm4" class="animable" fill="#263238"/><path d="M137.8 163c1 5.37 2.1 15.22-1.66 18.81 0 0 1.47 5.45 11.46 5.45 11 0 5.24-5.45 5.24-5.45-6-1.44-5.83-5.88-4.79-10.06z" style="transform-origin:145.244px 175.13px" id="elrn3lg92177" class="animable" fill="#e4897b"/><path d="M131.65 184.64c1.19-1.85-.81-6.34-.81-6.34s17.68-4.45 24.91 2.38c1.5 1.41-.16 3.49-.16 3.49z" style="transform-origin:143.609px 180.758px" id="el0wujnr1qbmi" class="animable" fill="#2982de"/><g id="ellu4frob2cwa"><path d="M131.65 184.64c1.19-1.85-.81-6.34-.81-6.34s17.68-4.45 24.91 2.38c1.5 1.41-.16 3.49-.16 3.49z" style="transform-origin:143.609px 180.758px" class="animable" id="elji0ka4hqatk" opacity=".1"/></g><path d="M102.4 388.67c-.93 0-2.42-1.55-2.86-2.13a.17.17 0 010-.19.18.18 0 01.16-.09c.11 0 2.56.22 3.23 1.09a.81.81 0 01.16.66.72.72 0 01-.52.65zm-2.32-2c.73.84 1.9 1.79 2.4 1.67 0 0 .2-.05.26-.37a.45.45 0 00-.1-.38 4.67 4.67 0 00-2.56-.94z" style="transform-origin:101.308px 387.465px" id="elk42o0hz1p1" class="animable" fill="#2982de"/><path d="M100.19 386.65a2.68 2.68 0 01-.54 0 .16.16 0 01-.14-.11.2.2 0 010-.18c.07-.06 1.54-1.59 2.65-1.59a.94.94 0 01.71.3.57.57 0 01.14.7c-.29.56-1.82.88-2.82.88zm-.13-.35c1 0 2.45-.31 2.69-.75 0 0 .07-.13-.09-.29a.59.59 0 00-.46-.19 4.23 4.23 0 00-2.14 1.23z" style="transform-origin:101.281px 385.717px" id="el8zz6lmv22y6" class="animable" fill="#2982de"/><path d="M168.39 411.37a13.25 13.25 0 01-2.26-.21.16.16 0 01-.13-.16.18.18 0 01.08-.18c.11-.06 2.67-1.53 3.9-1.19a.86.86 0 01.55.4.66.66 0 010 .76c-.29.45-1.2.58-2.14.58zm-1.69-.47c1.36.2 3.22.19 3.56-.29.05-.06.09-.17 0-.38a.56.56 0 00-.34-.25c-.78-.2-2.33.46-3.22.92z" style="transform-origin:168.324px 410.475px" id="el9f8c96pvwmb" class="animable" fill="#2982de"/><path d="M166.17 411.17a.18.18 0 01-.1 0 .16.16 0 01-.07-.17 4.88 4.88 0 011.14-2.83 1.25 1.25 0 011-.29c.48 0 .62.29.65.48.13.83-1.62 2.42-2.51 2.82zm1.79-3a.91.91 0 00-.6.22 4 4 0 00-1 2.27c.9-.55 2.1-1.79 2-2.29 0 0 0-.17-.34-.2z" style="transform-origin:167.396px 409.523px" id="el1ft690a55lh" class="animable" fill="#2982de"/><path style="transform-origin:162.13px 402.485px" id="elxpi1o43i79" class="animable" fill="#e4897b" d="M158.09 410.99h7.35l.73-17.01h-7.35l-.73 17.01z"/><path style="transform-origin:102.49px 378.07px" id="eli31nxjjvzmc" class="animable" fill="#e4897b" d="M92.64 381.79l6.14 4.02 13.56-11.45-6.15-4.03-13.55 11.46z"/><path d="M99.79 385.43l-6.38-5.23a.63.63 0 00-.8 0l-5.26 4.13a1.08 1.08 0 000 1.69c2.26 1.79 3.45 2.55 6.26 4.85 1.73 1.41 6 5.73 8.41 7.68s4.62-.15 3.82-1.16c-3.59-4.55-5-8.44-5.41-10.85a1.81 1.81 0 00-.64-1.11z" style="transform-origin:96.4747px 389.704px" id="elvoulq2nnoa" class="animable" fill="#263238"/><path d="M165.39 410.14h-8a.65.65 0 00-.63.5l-1.45 6.53a1.07 1.07 0 001.06 1.31c2.89-.05 7.07-.22 10.71-.22 4.25 0 7.93.23 12.91.23 3 0 3.86-3.05 2.59-3.32-5.74-1.26-10.44-1.39-15.4-4.46a3.44 3.44 0 00-1.79-.57z" style="transform-origin:169.215px 414.315px" id="elv5p0k68wqjk" class="animable" fill="#263238"/><path d="M121.66 184c-6.37 3-10 23.1-10 23.1l15.57 6.21a115.83 115.83 0 005.51-17.15c2.14-9.26-4.56-15.26-11.08-12.16z" style="transform-origin:122.403px 198.243px" id="elnr4l2vac8kd" class="animable" fill="#263238"/><path d="M129.92 195.33c-3.85 3.9-5.61 11.54-6.38 16.51l3.73 1.49a116.7 116.7 0 005.4-16.65c-.33-2.12-1.15-2.97-2.75-1.35z" style="transform-origin:128.105px 203.907px" id="eljknom7rb8j" class="animable" fill="#203048"/><path d="M164.14 183.86s7.82 8.84.44 63.5h-39.29c-.27-6 3.52-35.45-2.3-63.87a100.56 100.56 0 0113.15-1.66 140.87 140.87 0 0116.7 0 74.19 74.19 0 0111.3 2.03z" style="transform-origin:145.37px 214.471px" id="elxqr4ss4y3c" class="animable" fill="#263238"/><path d="M167.73 205.08l-6.62-11.41a58.31 58.31 0 00-1.55 16.27c.18 3.92 3.77 18.44 7 20.56a230.84 230.84 0 001.17-25.42z" style="transform-origin:163.619px 212.085px" id="elts5zyjeo3i" class="animable" fill="#203048"/><path d="M168.65 191.67c1 4.86 2 9.84 3.07 14.72s2.18 9.78 3.47 14.51c.33 1.17.64 2.37 1 3.49l.27.86.13.43v-.05c-.07-.09-.15-.1-.09 0a3.35 3.35 0 001.52.95 17.84 17.84 0 002.91.81 77.79 77.79 0 0014.3.93l.95 5.44c-1.34.43-2.59.74-3.91 1.05s-2.62.57-3.95.77a42.73 42.73 0 01-8.33.56 22.61 22.61 0 01-4.6-.6 13.39 13.39 0 01-5.28-2.45 9.65 9.65 0 01-2.47-3c-.16-.3-.3-.64-.43-.93l-.18-.47-.37-1c-.51-1.27-.93-2.52-1.39-3.77-1.69-5-3.1-10.05-4.34-15.09s-2.31-10.07-3.2-15.24z" style="transform-origin:176.955px 213.915px" id="el6sl74r9jhve" class="animable" fill="#e4897b"/><path d="M154.33 189.22c-2.07 6.71 6.32 26.72 6.32 26.72l16.71-4.2s-.64-10.4-4.45-18.65c-5.74-12.44-16.1-11.92-18.58-3.87z" style="transform-origin:165.681px 199.68px" id="el840dt6qbjjr" class="animable" fill="#263238"/><path d="M195.09 228.32l8.32-.21-4 8.66s-3.39.45-6.17-4.12l-2.93-3.5 3.37-.67a7.52 7.52 0 011.41-.16z" style="transform-origin:196.86px 232.446px" id="el56jxxcqdr5t" class="animable" fill="#e4897b"/><path style="transform-origin:204.035px 232.505px" id="elewbffw79gl6" class="animable" fill="#e4897b" d="M208.66 229.72l-4.76 7.18-4.49-.13 4-8.66 5.25 1.61z"/><path style="transform-origin:162.305px 398.365px" id="elm2fy825dt4" class="animable" fill="#ce6f64" d="M166.17 393.98l-.38 8.77h-7.35l.38-8.77h7.35z"/><path style="transform-origin:105.77px 375.295px" id="elesza6zseb5d" class="animable" fill="#ce6f64" d="M106.19 370.33l6.15 4.03-7 5.9-6.14-4.02 6.99-5.91z"/><path d="M138.26 157.28c.44 7.27.33 11.56 4 15.29 5.52 5.63 14.51 2.3 16.25-5 1.57-6.54.59-17.34-6.53-20.24a10 10 0 00-13.72 9.95z" style="transform-origin:148.696px 161.003px" id="el1kmcrh8z0ps" class="animable" fill="#e4897b"/><path d="M129.7 156c1.81 6.63 6.07 14.27 11.58 14.76 6.84.6 9.93-6.47 10.83-13.77 4.1-2.81 1.95-5.9 6.06-6.29 5.28-.5 3.59-10.16-3.36-11.71 0 0 2.33 4.35-2.56 2.15a28.22 28.22 0 00-14.94-2.59s6.24 3.12.14 4.51-7.92 5.15-5.11 7.42c0 .01-3.83 1.16-2.64 5.52z" style="transform-origin:145.37px 154.602px" id="elh16gx92xw7o" class="animable" fill="#263238"/><path d="M147.94 158.49a8.22 8.22 0 002.07 4.87c1.6 1.77 3.27.67 3.55-1.48.26-1.93-.27-5.18-2.23-6.16s-3.52.59-3.39 2.77z" style="transform-origin:150.777px 159.832px" id="elymu71jw87e" class="animable" fill="#e4897b"/><path d="M150.64 247.36s7.16 51.85 1.52 72.63c-8.94 32.9-43.12 60.67-43.12 60.67l-11.59-7.6s29.11-23.45 32.67-51c3.2-24.73-4.83-54.64-4.83-74.71z" style="transform-origin:125.888px 314.005px" id="eloe3grjciu7p" class="animable" fill="#2982de"/><g id="el4dg87bq4qdy"><path d="M150.64 247.36s7.16 51.85 1.52 72.63c-8.94 32.9-43.12 60.67-43.12 60.67l-11.59-7.6s29.11-23.45 32.67-51c3.2-24.73-4.83-54.64-4.83-74.71z" style="transform-origin:125.888px 314.005px" class="animable" id="el5yb3bbahxj3" opacity=".1"/></g><path d="M153.6 277a48.4 48.4 0 00-6.27-6c1.22 16.83 2.22 41.76 1.11 59.47a76.41 76.41 0 003.72-10.47c2.75-10.15 2.46-27.68 1.44-43z" style="transform-origin:150.829px 300.735px" id="elmcvy5tknq99" class="animable" fill="#2982de"/><g id="elh89u9mrj2r"><path d="M153.6 277a48.4 48.4 0 00-6.27-6c1.22 16.83 2.22 41.76 1.11 59.47a76.41 76.41 0 003.72-10.47c2.75-10.15 2.46-27.68 1.44-43z" style="transform-origin:150.829px 300.735px" class="animable" id="el7r07y707edo" opacity=".3"/></g><path d="M113.71 378.07c.05 0-4.49 3-4.49 3l-12.66-8.3 4-3.31z" style="transform-origin:105.135px 375.265px" id="el2dh7jbnlx5i" class="animable" fill="#2982de"/><g id="el5qi2auvkztu"><path d="M113.71 378.07c.05 0-4.49 3-4.49 3l-12.66-8.3 4-3.31z" style="transform-origin:105.135px 375.265px" class="animable" id="el85xshlxvyk9" opacity=".3"/></g><path d="M164.58 247.36s11.06 46.9 11.84 69.31c.88 25.12-7.89 84.38-7.89 84.38h-12.45s-1.53-59.72-2.08-82.6c-.61-24.95-15.25-71.09-15.25-71.09z" style="transform-origin:157.616px 324.205px" id="elw9d4km1uprb" class="animable" fill="#2982de"/><g id="elr3pmmwakz8"><path d="M164.58 247.36s11.06 46.9 11.84 69.31c.88 25.12-7.89 84.38-7.89 84.38h-12.45s-1.53-59.72-2.08-82.6c-.61-24.95-15.25-71.09-15.25-71.09z" style="transform-origin:157.616px 324.205px" class="animable" id="el3tuvq7h80me" opacity=".1"/></g><path d="M170.92 396.1c.06 0-.7 5.16-.7 5.16h-15.14l-.41-4.61z" style="transform-origin:162.797px 398.68px" id="elk8ivu63kly" class="animable" fill="#2982de"/><g id="elz4bb0yj3m2q"><path d="M170.92 396.1c.06 0-.7 5.16-.7 5.16h-15.14l-.41-4.61z" style="transform-origin:162.797px 398.68px" class="animable" id="el7eh1q8kg72c" opacity=".3"/></g></g><g id="freepik--character--inject-2" class="animable" style="transform-origin:337.551px 287.938px"><path d="M356 202.29c.85.8 1.52 1.48 2.22 2.24s1.36 1.5 2 2.27c1.3 1.53 2.52 3.14 3.7 4.76a76.27 76.27 0 016.27 10.26l.37.73a7.05 7.05 0 01.45 1.1 9.12 9.12 0 01.44 2.26 11 11 0 01-.55 4 20.16 20.16 0 01-3.21 5.92 42.68 42.68 0 01-8.8 8.46l-2.49-2.86c1.17-1.37 2.39-2.84 3.48-4.31a36.76 36.76 0 003-4.5 15.63 15.63 0 001.82-4.42 4.58 4.58 0 00.07-1.7 2.22 2.22 0 00-.18-.55 1.59 1.59 0 00-.13-.22l-.32-.54a105.06 105.06 0 00-6.27-9.11c-1.11-1.47-2.3-2.88-3.5-4.27-.59-.7-1.2-1.38-1.81-2.06s-1.27-1.36-1.8-1.89z" style="transform-origin:361.111px 223.29px" id="el647pd6588o8" class="animable" fill="#e4897b"/><path d="M357.36 240.59l-7.47-1.22 3.91 6.54s4.81-.17 6.18-3z" style="transform-origin:354.935px 242.64px" id="el77c5221wvbn" class="animable" fill="#e4897b"/><path style="transform-origin:349.085px 243.535px" id="el16c0aje7ml0h" class="animable" fill="#e4897b" d="M344.37 242.39l3.56 5.31 5.87-1.79-3.91-6.54-5.52 3.02z"/><path d="M357 411.28a2.15 2.15 0 01-1.43-.39 1 1 0 01-.29-.94.59.59 0 01.35-.5c.87-.39 3.15 1.07 3.41 1.24a.16.16 0 01.07.18.16.16 0 01-.13.14 8.85 8.85 0 01-1.98.27zm-1-1.55a.72.72 0 00-.22 0 .26.26 0 00-.15.23.67.67 0 00.18.63c.38.34 1.36.39 2.67.13a6.59 6.59 0 00-2.48-.99z" style="transform-origin:357.187px 410.336px" id="elrzapskpqbwc" class="animable" fill="#2982de"/><path d="M359 411h-.09c-.71-.41-2.08-2-1.91-2.87a.65.65 0 01.6-.5.9.9 0 01.75.24c.82.72.83 2.88.83 3a.19.19 0 01-.09.15zm-1.28-3h-.08c-.22 0-.27.12-.29.21-.1.51.75 1.73 1.46 2.3a4.09 4.09 0 00-.69-2.36.57.57 0 00-.45-.15z" style="transform-origin:358.083px 409.32px" id="el7sm26aktse" class="animable" fill="#2982de"/><path d="M322.92 411.28a2.77 2.77 0 01-1.81-.46 1 1 0 01-.33-.86.58.58 0 01.3-.47c.93-.52 3.91 1 4.25 1.19a.2.2 0 01.09.19.17.17 0 01-.14.14 12.47 12.47 0 01-2.36.27zm-1.33-1.55a.62.62 0 00-.33.07.21.21 0 00-.12.19.65.65 0 00.2.57c.46.41 1.69.48 3.35.2a9.73 9.73 0 00-3.1-1.03z" style="transform-origin:323.097px 410.337px" id="elviwqxyukc1s" class="animable" fill="#2982de"/><path d="M325.25 411h-.08c-.89-.4-2.66-2-2.52-2.87 0-.2.18-.45.67-.5a1.32 1.32 0 011 .31c.94.78 1.12 2.8 1.12 2.89a.17.17 0 01-.07.16.19.19 0 01-.12.01zm-1.79-3h-.11c-.32 0-.34.16-.35.2-.08.51 1.12 1.78 2 2.33a4.16 4.16 0 00-1-2.31.93.93 0 00-.54-.22z" style="transform-origin:324.042px 409.314px" id="el0y4bmzbl6wvg" class="animable" fill="#2982de"/><path d="M337.07 179.3c-.29 4.52-1.07 13.7 2.4 16.24 0 0-.63 4.63-8.82 5.71-9 1.17-4.89-3.91-4.89-3.91 4.77-1.82 4.16-5.45 2.86-8.77z" style="transform-origin:332.147px 190.363px" id="el211bxx6mow" class="animable" fill="#e4897b"/><path d="M318.44 171.31a.34.34 0 01-.26-.12 2.83 2.83 0 00-2.35-1 .35.35 0 01-.41-.3.36.36 0 01.31-.4 3.51 3.51 0 013 1.26.36.36 0 01-.27.59z" style="transform-origin:317.115px 170.409px" id="elfvour00u06n" class="animable" fill="#263238"/><path d="M316.88 175.74a16.28 16.28 0 01-1.63 4.1 2.58 2.58 0 002.19.12z" style="transform-origin:316.345px 177.944px" id="elw4v2c891ma" class="animable" fill="#de5753"/><path d="M317.28 174.64c.08.6-.17 1.12-.56 1.18s-.78-.4-.85-1 .17-1.12.56-1.17.78.35.85.99z" style="transform-origin:316.576px 174.736px" id="eljxpvj2u8by" class="animable" fill="#263238"/><path d="M316.61 173.66l-1.49-.23s.88 1.03 1.49.23z" style="transform-origin:315.865px 173.697px" id="elx82ftvuxfyc" class="animable" fill="#263238"/><path style="transform-origin:329.49px 402.165px" id="el79qr27rnup5" class="animable" fill="#e4897b" d="M333.49 410.84h-7.5l-.5-17.35h7.5l.5 17.35z"/><path style="transform-origin:362.585px 402.165px" id="eljw5ga79tus" class="animable" fill="#e4897b" d="M367.54 410.84h-7.5l-2.41-17.35h7.5l2.41 17.35z"/><path d="M359.58 410H368a.59.59 0 01.59.51l1 6.67a1.2 1.2 0 01-1.2 1.33c-2.93-.05-4.35-.22-8.05-.22-2.28 0-5.61.23-8.75.23s-3.31-3.11-2-3.39c5.87-1.26 6.8-3 8.77-4.67a2 2 0 011.22-.46z" style="transform-origin:359.208px 414.26px" id="eln0l9zxgmqbk" class="animable" fill="#263238"/><path d="M325.74 410h8.41a.6.6 0 01.6.51l1 6.67a1.2 1.2 0 01-1.2 1.33c-2.93-.05-4.35-.22-8.05-.22-2.28 0-7 .23-10.14.23s-3.31-3.11-2-3.39c5.87-1.26 8.18-3 10.16-4.67a2 2 0 011.22-.46z" style="transform-origin:324.673px 414.26px" id="eli4k906tnqje" class="animable" fill="#263238"/><path style="transform-origin:329.37px 397.965px" id="elmkp3ug6o63e" class="animable" fill="#ce6f64" d="M325.49 393.49l.26 8.95h7.5l-.26-8.95h-7.5z"/><path style="transform-origin:362px 397.965px" id="elbw7y8f8bgca" class="animable" fill="#ce6f64" d="M365.13 393.49h-7.5l1.25 8.95h7.49l-1.24-8.95z"/><path d="M337.17 169.94c.51 7.42.88 10.55-2.34 14.82-4.85 6.41-14.07 5.42-16.79-1.7-2.45-6.41-2.87-17.46 3.95-21.34a10.15 10.15 0 0115.18 8.22z" style="transform-origin:326.957px 174.705px" id="eljqr2f4q3aho" class="animable" fill="#e4897b"/><path d="M341.49 176.83c4.16 2.32 7.25-3.4 7.25-3.4s-7.46.81-6.79-3.63c.88-5.89-3.34-13.05-13.92-12.13-.59.05-1.15.12-1.7.21a5.44 5.44 0 00-6.58 1.52c-3 .25-7.05 3.83-4.3 8.56a4.35 4.35 0 01.88-1.47c.23 2.77 2.65 7.17 5.67 7.46.65 3.79-1.87 8.18-1 12.14 1.29 5.71 10.92 7 10.92 7a4.17 4.17 0 01.56-4.41c6.54 3 10.85.07 10.85.07-4.46-1.66-3.11-4.62-3.11-4.62a6.51 6.51 0 008.49-3.09 7.68 7.68 0 01-7.22-4.21z" style="transform-origin:331.638px 175.223px" id="elyu9o8j7sit" class="animable" fill="#263238"/><path d="M324.61 175.09a5.4 5.4 0 01-1.5 3.87c-1.32 1.37-2.94.41-3.38-1.34-.39-1.58-.17-4.19 1.55-4.91a2.44 2.44 0 013.33 2.38z" style="transform-origin:322.089px 176.076px" id="elpjpkizspcoa" class="animable" fill="#e4897b"/><path d="M330.84 244.22s1.9 49.36 6.42 78.34c3.64 23.42 19.81 78.14 19.81 78.14h10.22s-8.43-52.85-10.28-76c-4.68-58.59 7.47-71.17-4-83.37z" style="transform-origin:349.065px 321.015px" id="el2a65z5eznlf" class="animable" fill="#263238"/><path d="M339.38 259.83s-4.62-.8-7.32 8c1 16.67 2.71 38.79 5.2 54.73.55 3.55 1.39 7.83 2.42 12.52-1.95-28.16-.3-75.25-.3-75.25z" style="transform-origin:335.87px 297.446px" id="el846j0f8391n" class="animable" fill="#161f33"/><path d="M322.87 245.26s-8.42 54.61-7.93 77.46c.51 23.77 9.22 78 9.22 78h10.13s-1.6-52.82-.71-76.16c1-25.45 11.39-82.17 11.39-82.17z" style="transform-origin:329.945px 321.555px" id="eln3pmg3wmhh" class="animable" fill="#263238"/><path style="transform-origin:361.445px 398.9px" id="elpw8zbpca32j" class="animable" fill="#2982de" d="M368.77 401.18h-13.59l-1.06-4.56 14.55.1.1 4.46z"/><g id="elmwkz9jbr2kk"><path style="transform-origin:361.445px 398.9px" class="animable" id="elnrbcjlhqh2r" opacity=".2" d="M368.77 401.18h-13.59l-1.06-4.56 14.55.1.1 4.46z"/></g><path d="M352.5 195.55c3.91.38 9.85 11.49 9.85 11.49l-9.87 7.57s-8.17-7.17-7.2-11.2c1.01-4.19 3.47-8.21 7.22-7.86z" style="transform-origin:353.775px 205.069px" id="elcyum9i8wm7w" class="animable" fill="#2982de"/><g id="el5hvcsxots49"><path d="M352.5 195.55c3.91.38 9.85 11.49 9.85 11.49l-9.87 7.57s-8.17-7.17-7.2-11.2c1.01-4.19 3.47-8.21 7.22-7.86z" style="transform-origin:353.775px 205.069px" class="animable" id="elesrvgmkrk85" opacity=".1"/></g><path d="M349.55 200.33a10.13 10.13 0 00-3.06-.34 16.91 16.91 0 00-1.21 3.42c-1 4 7.2 11.2 7.2 11.2l.73-.56z" style="transform-origin:349.203px 207.296px" id="elnkmsudit0mg" class="animable" fill="#2982de"/><g id="el850qnt0s4ko"><path d="M349.55 200.33a10.13 10.13 0 00-3.06-.34 16.91 16.91 0 00-1.21 3.42c-1 4 7.2 11.2 7.2 11.2l.73-.56z" style="transform-origin:349.203px 207.296px" class="animable" id="elwze58i8w9s" opacity=".3"/></g><path d="M319.52 211c-2.85 7.21-5.85 14.54-8.24 21.77-.16.46-.29.9-.43 1.35l-.34 1.11a1.83 1.83 0 000 1 7.52 7.52 0 002.59 3.1 42.19 42.19 0 009.69 5.19l-.9 3.68a34.69 34.69 0 01-12.08-3.94 12.93 12.93 0 01-5.39-5.46 8.37 8.37 0 01-.69-4.76 5.58 5.58 0 01.1-.59l.1-.42.17-.76c.12-.51.24-1 .37-1.5 1-4 2.28-7.8 3.63-11.57s2.76-7.49 4.35-11.2z" style="transform-origin:313.215px 228.1px" id="el4kz7whr1fey" class="animable" fill="#e4897b"/><path d="M313.45 200.88s-3.38 1.71 9.42 44.38l30.18-3.94c-2.12-12.22-3.12-19.79-.55-45.77a91 91 0 00-13 0 95.5 95.5 0 00-13.71 1.8c-5.79 1.29-12.34 3.53-12.34 3.53z" style="transform-origin:333.048px 220.289px" id="elmwij5vmde3f" class="animable" fill="#2982de"/><g id="elw70qniyyu0b"><path d="M313.45 200.88s-3.38 1.71 9.42 44.38l30.18-3.94c-2.12-12.22-3.12-19.79-.55-45.77a91 91 0 00-13 0 95.5 95.5 0 00-13.71 1.8c-5.79 1.29-12.34 3.53-12.34 3.53z" style="transform-origin:333.048px 220.289px" class="animable" id="el87rgvc1dnup" opacity=".1"/></g><path d="M353.27 239.49L355 242c.13.2-.09.44-.43.49l-31.65 4.14c-.27 0-.52-.07-.56-.24l-.62-2.67c-.05-.18.17-.37.47-.41l30.56-4a.55.55 0 01.5.18z" style="transform-origin:338.385px 242.967px" id="elfcd5ubl13ct" class="animable" fill="#2982de"/><g id="el2fml7g1j87m"><path d="M353.27 239.49L355 242c.13.2-.09.44-.43.49l-31.65 4.14c-.27 0-.52-.07-.56-.24l-.62-2.67c-.05-.18.17-.37.47-.41l30.56-4a.55.55 0 01.5.18z" style="transform-origin:338.385px 242.967px" class="animable" id="elg339lm1tasf" opacity=".2"/></g><path d="M349.61 243.44l.82-.11c.16 0 .27-.12.25-.22l-.84-3.46a.29.29 0 00-.34-.14l-.82.1c-.17 0-.28.12-.25.23l.84 3.45c.02.11.18.17.34.15z" style="transform-origin:349.554px 241.471px" id="el195yie5ubgl" class="animable" fill="#263238"/><path d="M329.77 246l.82-.11c.16 0 .28-.12.25-.22l-.84-3.46a.31.31 0 00-.34-.15l-.82.11c-.16 0-.28.12-.25.22l.84 3.46c.02.15.18.21.34.15z" style="transform-origin:329.715px 244.038px" id="el734jo69qtch" class="animable" fill="#263238"/><path d="M314.86 215.36c.83 3.86 2 8.75 3.71 14.94l.37-15.69z" style="transform-origin:316.9px 222.455px" id="el3znc64fifsh" class="animable" fill="#2982de"/><g id="el6grv1zlbfja"><path d="M314.86 215.36c.83 3.86 2 8.75 3.71 14.94l.37-15.69z" style="transform-origin:316.9px 222.455px" class="animable" id="eliogrx7s963j" opacity=".3"/></g><path d="M313.45 200.88c-3.75 1.51-7 14.34-7 14.34l12.9 6.28s6.23-15.69 3.44-18.75-5.02-3.6-9.34-1.87z" style="transform-origin:314.979px 210.702px" id="elvruokb48hn9" class="animable" fill="#2982de"/><g id="elorxwh1pels"><path d="M313.45 200.88c-3.75 1.51-7 14.34-7 14.34l12.9 6.28s6.23-15.69 3.44-18.75-5.02-3.6-9.34-1.87z" style="transform-origin:314.979px 210.702px" class="animable" id="elw26z4u8zg7" opacity=".1"/></g><path style="transform-origin:328.935px 398.9px" id="elre0f72ckpil" class="animable" fill="#2982de" d="M336.02 401.18h-13.59l-1.06-4.56 15.13.1-.48 4.46z"/><g id="el1eax0xgam2v"><path style="transform-origin:328.935px 398.9px" class="animable" id="el2639mn438xf" opacity=".2" d="M336.02 401.18h-13.59l-1.06-4.56 15.13.1-.48 4.46z"/></g><path d="M323 243.28l-1.09-.45a1.64 1.64 0 00-2.24 1.76l.79 5.21a1.78 1.78 0 002.36 1.42 4 4 0 001.1-.61 3 3 0 001.08-2.48l-.11-2.16a3 3 0 00-1.89-2.69z" style="transform-origin:322.329px 247.016px" id="eltki3mtgo5zm" class="animable" fill="#e4897b"/></g><defs><filter id="active" height="200%"><feMorphology in="SourceAlpha" result="DILATED" operator="dilate" radius="2"/><feFlood flood-color="#32DFEC" flood-opacity="1" result="PINK"/><feComposite in="PINK" in2="DILATED" operator="in" result="OUTLINE"/><feMerge><feMergeNode in="OUTLINE"/><feMergeNode in="SourceGraphic"/></feMerge></filter><filter id="hover" height="200%"><feMorphology in="SourceAlpha" result="DILATED" operator="dilate" radius="2"/><feFlood flood-color="red" flood-opacity=".5" result="PINK"/><feComposite in="PINK" in2="DILATED" operator="in" result="OUTLINE"/><feMerge><feMergeNode in="OUTLINE"/><feMergeNode in="SourceGraphic"/></feMerge><feColorMatrix values="0 0 0 0 0 0 1 0 0 0 0 0 0 0 0 0 0 0 1 0"/></filter></defs></svg>